<svg xmlns="http://www.w3.org/2000/svg" viewBox="0 0 98 26.57"><title>logo-type16-black</title><g id="Layer_2" data-name="Layer 2"><g id="Layer_1-2" data-name="Layer 1"><path d="M2.29,9.58H.58A.78.78,0,0,1,0,9V4.48c0-.29.36-.29.58-.29H2.29V1c0-.23.28-.42.54-.45L8.39,0a.43.43,0,0,1,.43.45V4.19h.71c.39,0,.59.12.67.36.25.78,1,3.45,1.25,4.23.18.55-.14.79-.4.79H8.82V22.86c0,.26-.05.43-.31.43H2.9c-.26,0-.61-.18-.61-.43ZM16.74,21.43c.06.23.26.56.58.56h2c-.24,1-.44,3.55-.57,4-.08.32.16.53.49.53H23.3a.51.51,0,0,0,.47-.34c.15-.39,6-21.67,6-21.67.06-.23-.06-.37-.35-.37H23.79a.53.53,0,0,0-.58.35L20.76,15.1,18.29,4.57a.6.6,0,0,0-.61-.38H11.89c-.26,0-.42.18-.32.41Zm14,4.67V4.59a.5.5,0,0,1,.49-.48h4.16l.49.6a23.77,23.77,0,0,1,4.41-.57c5.08,0,8.15,4,8.15,9.62S45.29,23,40.21,23a5.58,5.58,0,0,1-3.62-1.22V26.1a.44.44,0,0,1-.41.46h-5A.51.51,0,0,1,30.7,26.1Zm6.21-10.75a2.42,2.42,0,0,0,2.25,1.52c1.52,0,2.58-1.56,2.58-3.5s-1.07-3.61-2.6-3.61a2.4,2.4,0,0,0-2.24,1.52Zm12.33-1.62c0-6,3.64-10,9.64-10,5.73,0,8.74,4.05,8.74,10.33a5.38,5.38,0,0,1-.14,1.28.49.49,0,0,1-.52.47H56.25s0,2.44,2.9,2.44A11.45,11.45,0,0,0,64.07,17a.36.36,0,0,1,.52.26l1.48,3.6c.07.24,0,.38-.24.51A12.16,12.16,0,0,1,59,23.35C52.94,23.35,49.23,19.7,49.23,13.74Zm7-1.54h4.9c0-2.29-1.07-2.93-2.45-2.93C57.12,9.26,56.22,10.23,56.22,12.19ZM71.83,9.58h1.82V23a.34.34,0,0,0,.39.34h5.34c.21,0,.15-.13.15-.34V4.2c0-.18,0-.29-.26-.26H71.84a.39.39,0,0,0-.39.39l0,5C71.45,9.5,71.65,9.58,71.83,9.58ZM80.93,14c0-6.26,4-10.43,9.33-10.43A11.59,11.59,0,0,1,96.2,5.24c.2.14.32.26.23.49L95,9.58a.41.41,0,0,1-.52.23,10.63,10.63,0,0,0-3.86-.9c-2.38,0-3.56,1.59-3.56,4a5.39,5.39,0,0,1,4.11-1.62c4.06,0,6.81,1.94,6.81,5.79,0,4.23-3.33,6.72-7.77,6.72C84.61,23.77,80.93,20.59,80.93,14Zm6.61,3.13c0,1.19.84,1.91,2.29,1.91,1.28,0,2.12-.67,2.12-1.65s-.81-1.54-2-1.54A2.56,2.56,0,0,0,87.54,17.17Z"/></g></g></svg>