<svg xmlns="http://www.w3.org/2000/svg" viewBox="0 0 398.37 386.56"><defs><style>.cls-1{fill:#fff;}.cls-2{fill:#e39325;}.cls-3{fill:#3873b9;}.cls-4{fill:#1d1d1b;}</style></defs><title>logo-relibond-bg-white</title><g id="Layer_2" data-name="Layer 2"><g id="Layer_1-2" data-name="Layer 1"><g id="Layer_2-2" data-name="Layer 2"><g id="Layer_1-2-2" data-name="Layer 1-2"><rect class="cls-1" width="398.37" height="386.55"/><rect class="cls-2" x="227.56" width="14.73" height="88.1"/><rect class="cls-3" x="227.56" y="298.45" width="14.73" height="88.11"/><path class="cls-4" d="M39.57,160.76c-1.26.12-2.64.12-4,.12H14.78V187.3H0V99.66H35.56c22.41,0,35.3,10.89,35.3,29.93,0,14-6.5,23.91-18.15,28.42l19.66,29.3H55.6Zm-4-13.15c13.52,0,21.28-5.76,21.28-17.66,0-11.52-7.76-17-21.28-17H14.78v34.68Zm64.72-34.68V136.6H143.1v13.27H100.28V174H149.6V187.3H85.5V99.66h62.6v13.28Zm115.67,61v13.4H163.23V99.66H178V173.9Zm11.63,13.4V99.66h14.78V187.3ZM95.65,240.69c9.52-2.25,15.4-9.64,15.4-19.53,0-13.65-11.27-21.91-29.42-21.91H43.57v87.64H82.5c19.79,0,31.93-9,31.93-24C114.43,251.08,107.42,242.69,95.65,240.69Zm-37.31-28.3H80.88c9.39,0,15,4,15,11.39s-5.64,11.77-15,11.77H58.34Zm22.54,61.35H58.34V248.58H80.88c11.52,0,18.4,4.63,18.4,12.4C99.28,269.24,92.39,273.74,80.88,273.74Zm88.29-74.87c-26.17,0-46.45,19-46.45,44.2S143,287.5,169.17,287.5s46.45-19.41,46.45-44.45-20.28-44.18-46.45-44.18Zm.13,75.38c-17.16,0-31.55-13.77-31.55-31.18S152,212.15,169.3,212.15a31,31,0,0,1,0,62.1ZM289.09,286.9,242.39,224V286.9H227.62V199.25h14.52l46.95,63v-63h14.53v87.64Zm64-87.64h-36V286.9h35.55c26.55,0,45.7-18.53,45.7-43.82s-19-43.83-45.32-43.83Zm.37,74.37H331.89V212.5H352.8c17.27,0,30.67,12.77,30.67,30.68s-13,30.44-30,30.44Z"/></g></g></g></g></svg>