<svg xmlns="http://www.w3.org/2000/svg" xmlns:xlink="http://www.w3.org/1999/xlink" viewBox="0 0 863.14 888.61"><defs><style>.cls-1,.cls-2,.cls-4{fill:none;}.cls-2{stroke:#1d1d1b;stroke-width:0.72px;}.cls-3{opacity:0.15;fill:url(#_10_lpi_10_);}.cls-4{stroke:#ebebeb;stroke-miterlimit:10;}.cls-5{fill:#e39325;}.cls-6{fill:#3973b9;}.cls-7{fill:#f2f2f2;}</style><pattern id="_10_lpi_10_" data-name="10 lpi 10%" width="72" height="72" patternTransform="translate(-37.02 -62.57) rotate(-45)" patternUnits="userSpaceOnUse" viewBox="0 0 72 72"><rect class="cls-1" width="72" height="72"/><line class="cls-2" x1="71.75" y1="68.4" x2="144.25" y2="68.4"/><line class="cls-2" x1="71.75" y1="54" x2="144.25" y2="54"/><line class="cls-2" x1="71.75" y1="39.6" x2="144.25" y2="39.6"/><line class="cls-2" x1="71.75" y1="25.2" x2="144.25" y2="25.2"/><line class="cls-2" x1="71.75" y1="10.8" x2="144.25" y2="10.8"/><line class="cls-2" x1="71.75" y1="61.2" x2="144.25" y2="61.2"/><line class="cls-2" x1="71.75" y1="46.8" x2="144.25" y2="46.8"/><line class="cls-2" x1="71.75" y1="32.4" x2="144.25" y2="32.4"/><line class="cls-2" x1="71.75" y1="18" x2="144.25" y2="18"/><line class="cls-2" x1="71.75" y1="3.6" x2="144.25" y2="3.6"/><line class="cls-2" x1="-0.25" y1="68.4" x2="72.25" y2="68.4"/><line class="cls-2" x1="-0.25" y1="54" x2="72.25" y2="54"/><line class="cls-2" x1="-0.25" y1="39.6" x2="72.25" y2="39.6"/><line class="cls-2" x1="-0.25" y1="25.2" x2="72.25" y2="25.2"/><line class="cls-2" x1="-0.25" y1="10.8" x2="72.25" y2="10.8"/><line class="cls-2" x1="-0.25" y1="61.2" x2="72.25" y2="61.2"/><line class="cls-2" x1="-0.25" y1="46.8" x2="72.25" y2="46.8"/><line class="cls-2" x1="-0.25" y1="32.4" x2="72.25" y2="32.4"/><line class="cls-2" x1="-0.25" y1="18" x2="72.25" y2="18"/><line class="cls-2" x1="-0.25" y1="3.6" x2="72.25" y2="3.6"/><line class="cls-2" x1="-72.25" y1="68.4" x2="0.25" y2="68.4"/><line class="cls-2" x1="-72.25" y1="54" x2="0.25" y2="54"/><line class="cls-2" x1="-72.25" y1="39.6" x2="0.25" y2="39.6"/><line class="cls-2" x1="-72.25" y1="25.2" x2="0.25" y2="25.2"/><line class="cls-2" x1="-72.25" y1="10.8" x2="0.25" y2="10.8"/><line class="cls-2" x1="-72.25" y1="61.2" x2="0.25" y2="61.2"/><line class="cls-2" x1="-72.25" y1="46.8" x2="0.25" y2="46.8"/><line class="cls-2" x1="-72.25" y1="32.4" x2="0.25" y2="32.4"/><line class="cls-2" x1="-72.25" y1="18" x2="0.25" y2="18"/><line class="cls-2" x1="-72.25" y1="3.6" x2="0.25" y2="3.6"/></pattern></defs><title>relibond-logo-blueprint</title><g id="Layer_2" data-name="Layer 2"><g id="Layer_1-2" data-name="Layer 1"><rect class="cls-3" x="370.36" y="273.16" width="400.02" height="395.9"/><line class="cls-4" y1="361.26" x2="862.64" y2="361.26"/><line class="cls-4" y1="375.96" x2="862.64" y2="375.96"/><line class="cls-4" y1="463.76" x2="862.64" y2="463.76"/><line class="cls-4" y1="478.46" x2="862.64" y2="478.46"/><line class="cls-4" y1="566.26" x2="862.64" y2="566.26"/><line class="cls-4" y1="580.96" x2="862.64" y2="580.96"/><line class="cls-4" x1="613.71" x2="613.71" y2="888.61"/><line class="cls-4" x1="599.01" x2="599.01" y2="888.61"/><line class="cls-4" x1="862.64" x2="862.64" y2="888.61"/><line class="cls-4" x1="277.36" x2="277.36" y2="888.61"/><rect class="cls-5" x="599.48" y="273.16" width="14.7" height="88.1"/><rect class="cls-6" x="599.48" y="580.96" width="14.7" height="88.1"/><path d="M424.58,433.68c11.7-4.5,18.2-13.89,18.2-27.89,0-19-12.9-29.39-35.3-29.39H370v87h15v-26h22.48c1.4,0,2.7-.2,4-.3l16,26.3h16.8Zm-17.1-9.28H385v-35h22.48c13.5,0,21.3,5.65,21.3,17.15C428.78,418.46,421,424.41,407.48,424.41Z"/><polygon points="472.18 389.16 472.18 412.86 514.98 412.86 514.98 426.16 472.18 426.16 472.18 450.26 521.48 450.26 521.48 463.56 457.38 463.56 457.38 375.96 519.98 375.96 519.98 389.26 472.18 389.26 472.18 389.16"/><polygon points="587.78 450.16 587.78 463.56 535.08 463.56 535.08 375.96 549.88 375.96 549.88 450.16 587.78 450.16"/><polygon points="599.48 463.56 599.48 375.96 614.28 375.96 614.28 463.56 599.48 463.56 599.48 463.56"/><path d="M467.48,519.06c9.5-2.2,15.4-9.23,15.4-19.13,0-13.6-11.3-21.53-29.4-21.53H414v88h40.38c19.8,0,31.9-9.58,31.9-24.58C486.28,530,479.28,521.06,467.48,519.06ZM428,491.41h24.68c9.4,0,15,4.4,15,11.8s-5.6,12.2-15,12.2H428Zm24.78,62H428v-25h24.68c11.5,0,18.4,4.5,18.4,12.3C471.18,549,464.28,553.41,452.78,553.41Z"/><path d="M541.08,478.26c-26.2,0-46.5,19-46.5,44.2,0,25,20.3,44.4,46.5,44.4s46.5-19.4,46.5-44.4S567.18,478.26,541.08,478.26Zm.1,75.3c-17.2,0-31.6-13.8-31.6-31.2s14.3-30.9,31.6-30.9a31.05,31.05,0,1,1,0,62.1Z"/><polygon points="660.98 566.26 614.28 503.36 614.28 566.26 599.48 566.26 599.48 478.66 613.98 478.66 660.88 541.66 660.88 478.66 675.38 478.66 675.38 566.26 660.98 566.26"/><path d="M725,478.41H687v88h37.68c26.5,0,45.7-18.7,45.7-44S751.18,478.41,725,478.41Zm.3,75H702v-61h22.68c17.3,0,30.7,12.75,30.7,30.65S742.38,553.41,725.28,553.41Z"/><path class="cls-7" d="M816.14,272.91c-26.2,0-46.5,19-46.5,44.2,0,25,20.3,44.4,46.5,44.4s46.5-19.4,46.5-44.4S842.24,272.91,816.14,272.91Zm.1,75.3c-17.2,0-31.6-13.8-31.6-31.2s14.3-30.9,31.6-30.9a31.05,31.05,0,1,1,0,62.1Z"/><path class="cls-7" d="M416.86,184.31c-26.2,0-46.5,19-46.5,44.2,0,25,20.3,44.4,46.5,44.4s46.5-19.4,46.5-44.4S443,184.31,416.86,184.31Zm.1,75.3c-17.2,0-31.6-13.8-31.6-31.2s14.3-30.9,31.6-30.9a31.05,31.05,0,1,1,0,62.1Z"/><path class="cls-7" d="M323.86,580.71c-26.2,0-46.5,19-46.5,44.2,0,25,20.3,44.4,46.5,44.4s46.5-19.4,46.5-44.4S350,580.71,323.86,580.71ZM324,656c-17.2,0-31.6-13.8-31.6-31.2s14.3-30.9,31.6-30.9a31.05,31.05,0,1,1,0,62.1Z"/><path class="cls-7" d="M721.88,669.31c-26.2,0-46.5,19-46.5,44.2,0,25,20.3,44.4,46.5,44.4s46.5-19.4,46.5-44.4S748,669.31,721.88,669.31Zm.1,75.3c-17.2,0-31.6-13.8-31.6-31.2s14.3-30.9,31.6-30.9a31.05,31.05,0,1,1,0,62.1Z"/><line class="cls-4" y1="757.91" x2="862.64" y2="757.91"/><line class="cls-4" y1="184.31" x2="862.64" y2="184.31"/></g></g></svg>