<?xml version="1.0" encoding="utf-8"?>
<!-- Generator: Adobe Illustrator 19.1.0, SVG Export Plug-In . SVG Version: 6.00 Build 0)  -->
<svg version="1.1" id="Layer_1" xmlns="http://www.w3.org/2000/svg" xmlns:xlink="http://www.w3.org/1999/xlink" x="0px" y="0px"
	 viewBox="0 0 398.4 386.6" enable-background="new 0 0 398.4 386.6" xml:space="preserve">
<g>
	<rect x="227.6" fill="#E39325" width="14.7" height="88.1"/>
	<rect x="227.6" y="298.4" fill="#3973B9" width="14.7" height="88.1"/>
	<path d="M39.6,160.8c-1.3,0.1-2.6,0.1-4,0.1H14.8v26.4H0V99.7h35.6c22.4,0,35.3,10.9,35.3,29.9c0,14-6.5,23.9-18.2,28.4l19.7,29.3
		H55.6L39.6,160.8z M35.6,147.6c13.5,0,21.3-5.8,21.3-17.7c0-11.5-7.8-17-21.3-17H14.8v34.7H35.6z M100.3,112.9v23.7h42.8v13.3
		h-42.8V174h49.3v13.3H85.5V99.7h62.6v13.3H100.3z M215.9,173.9v13.4h-52.7V99.7H178v74.2H215.9z M227.6,187.3V99.7h14.8v87.6H227.6
		z M95.6,240.7c9.5-2.2,15.4-9.6,15.4-19.5c0-13.6-11.3-21.9-29.4-21.9H43.6v87.6h38.9c19.8,0,31.9-9,31.9-24
		C114.4,251.1,107.4,242.7,95.6,240.7z M58.3,212.4h22.5c9.4,0,15,4,15,11.4c0,7.4-5.6,11.8-15,11.8H58.3V212.4z M80.9,273.7H58.3
		v-25.2h22.5c11.5,0,18.4,4.6,18.4,12.4C99.3,269.2,92.4,273.7,80.9,273.7z M169.2,198.9c-26.2,0-46.5,19-46.5,44.2
		c0,25,20.3,44.4,46.5,44.4s46.5-19.4,46.5-44.4C215.6,218,195.3,198.9,169.2,198.9z M169.3,274.2c-17.2,0-31.6-13.8-31.6-31.2
		c0-17.4,14.3-30.9,31.6-30.9c17.2,0,31.2,13.5,31.2,30.9C200.5,260.5,186.4,274.2,169.3,274.2z M289.1,286.9L242.4,224v62.9h-14.8
		v-87.6h14.5l46.9,63v-63h14.5v87.6H289.1z M353.1,199.2h-35.9v87.6h35.6c26.5,0,45.7-18.5,45.7-43.8
		C398.4,217.6,379.3,199.2,353.1,199.2z M353.4,273.6h-21.5v-61.1h20.9c17.3,0,30.7,12.8,30.7,30.7
		C383.5,261,370.5,273.6,353.4,273.6z"/>
</g>
</svg>
